<svg id="Capa_1" data-name="Capa 1" xmlns="http://www.w3.org/2000/svg" viewBox="0 0 1000 1000"><defs><style>.cls-1{fill:#e1cec4;}.cls-2{fill:#edcda8;opacity:0.5;}.cls-3{fill:#fff;}</style></defs><title>ds2</title><rect class="cls-1" width="1000" height="1000"/><path class="cls-2" d="M662.54,402.26l.13-1.59A7.15,7.15,0,0,0,662.54,402.26Z"/><path class="cls-3" d="M397.23,900S81.7,762.32,341.78,456.35c0,0,170.13-200.79,70.72-369.07,0,0,67,17.21,101.38,124.3,0,0,49.72,95.61,88,95.61S605.67,354,587.5,354s3.83,27.73,3.83,27.73l10.52,4.78s12.43,21-21,41.12c0,0,38.25,25.81-1.91,46.85,0,0,45.89,110.91-54.5,88s-184.54,85.1-184.54,85.1S265.28,788.13,397.23,900Z"/><ellipse class="cls-3" cx="663.9" cy="299.3" rx="5.86" ry="14.23" transform="matrix(0.58, -0.81, 0.81, 0.58, 34.59, 665.79)"/><path class="cls-3" d="M661.24,291.26s51.69-137.4,102.07-168.89c0,0-41.54,130.12-91,179.7Z"/><path class="cls-3" d="M653,297.91s-24.13,19-12.13,53.23c0,0,1-18.16,3.41-19.18,0,0-5.94,17.6,0,28.71,0,0-3.19-13.89,5.46-22.23,0,0-12.22,13.89-1,29.65,0,0-4.88-16.22,4.22-26.29,0,0-7.37,11-3.81,17.49,0,0,.33-9.93,7.13-14.09,2.17-1.33,17.71-16.17,13.37-37.75S653,297.91,653,297.91Z"/></svg>