<svg id="Capa_1" data-name="Capa 1" xmlns="http://www.w3.org/2000/svg" viewBox="0 0 1000 1000"><defs><style>.cls-1{fill:#e1cec4;}.cls-2{fill:#edcda8;opacity:0.5;}.cls-3{fill:#fff;}.cls-4{fill:none;stroke:#fff;stroke-miterlimit:10;stroke-width:11px;}</style></defs><title>ll2</title><rect class="cls-1" width="1000" height="1000"/><path class="cls-2" d="M662.54,402.26l.13-1.59A7.15,7.15,0,0,0,662.54,402.26Z" transform="translate(0 0)"/><path class="cls-3" d="M625.63,844.81V255.22c-19.44-109.48-144-89.25-144-89.25-23-85.68-133.15-72.2-133.15-72.2v10.58c30.67,9.52,25.38,37,25.38,37V702c7.41,142.27,146,119.53,146,119.53,34.91,89.38,133.28,70.87,133.28,70.87v-6.87C628.28,884,625.63,844.81,625.63,844.81ZM484.94,174.17c23.27,3.17,30.15,24.33,30.15,24.33V595.17h-27.5l-.53-407.78C488.12,182.1,484.94,174.17,484.94,174.17ZM487.59,793V602.57h27.5v193s2.12,18.51,5.29,18.51C520.38,814.13,495.52,816.25,487.59,793Z" transform="translate(0 0)"/><line class="cls-4" x1="116.99" y1="596" x2="879" y2="596"/></svg>