<svg id="Capa_1" data-name="Capa 1" xmlns="http://www.w3.org/2000/svg" viewBox="0 0 4124.05 2888.61"><defs><style>.cls-1{opacity:0.65;}.cls-2{fill:#cfcfcf;}</style></defs><title>imagen4</title><g class="cls-1"><path class="cls-2" d="M726.32,1551.23c35.82,92.29,136.62,73.12,136.62,73.12v-7.1c-25.47-1.63-28.2-42-28.2-42l-.32-608.9c-20-113.06-147.6-92.1-147.6-92.1-23.62-88.48-136.48-74.49-136.48-74.49v10.92c31.44,9.82,26,38.22,26,38.22l.3,579C584.34,1574.79,726.32,1551.23,726.32,1551.23Zm-33.07-29.48-.09-172.36,0-24.29v-7.64l-.76-421.14c1.08-5.47-2.18-13.66-2.18-13.66,23.85,3.27,30.91,25.11,30.91,25.11l.2,393.55v48l.09,175.09s2.18,19.12,5.43,19.12C726.86,1543.58,701.39,1545.78,693.25,1521.75Z" transform="translate(-1.24 2.03)"/><path class="cls-2" d="M1171.16,2412.36l-.32-608.91c-20-113.06-147.6-92.1-147.6-92.1-23.62-88.48-136.48-74.49-136.48-74.49v10.93c31.43,9.81,26,38.22,26,38.22l.3,579c6.41,122.89,106.77,126.51,139.44,124.41-7.24-2.54-15.31-8-19.28-19.71v-3.33a33.29,33.29,0,0,1-3.58-7.48l-.09-172.36,0-24.28v-7.65l-.76-421.14c1.08-5.46-2.18-13.66-2.18-13.66,23.85,3.27,30.91,25.11,30.91,25.11v3.6a35.89,35.89,0,0,1,3.58,7.22l.21,393.54h-3.58v48.06h3.58l.09,175.09s.44,3.82,1.21,8a1.07,1.07,0,0,0,.64.26l-.58,0c1,5.15,2.4,10.78,4.16,10.78,0,0-1,.08-2.76,0,36.71,88.11,134.19,70.13,135.21,69.94v-7.11C1173.89,2452.72,1171.16,2412.36,1171.16,2412.36Z" transform="translate(-1.24 2.03)"/><path class="cls-2" d="M1147.71,1704.36c7.67,146.94,149.65,123.37,149.65,123.37,35.82,92.3,136.62,73.13,136.62,73.13v-7.1c-25.47-1.63-28.2-42-28.2-42l-.32-608.9c-20-113.06-147.6-92.1-147.6-92.1-23.62-88.48-136.48-74.49-136.48-74.49v10.92c31.43,9.82,26,38.22,26,38.22Zm144.44-520.08.2,393.54v48.06l.09,175.09s2.18,19.12,5.43,19.12c0,0-25.47,2.19-33.61-21.83l-.09-172.36,0-24.29V1594l-.76-421.15c1.08-5.46-2.18-13.65-2.18-13.65C1285.09,1162.44,1292.15,1184.28,1292.15,1184.28Z" transform="translate(-1.24 2.03)"/><path class="cls-2" d="M1374.68,536.83l.3,579c7.67,146.93,149.65,123.37,149.65,123.37,35.82,92.29,136.62,73.12,136.62,73.12v-7.1c-25.47-1.62-28.2-42-28.2-42l-.32-608.91c-20-113.06-147.6-92.1-147.6-92.1-23.62-88.48-136.48-74.49-136.48-74.49V498.6C1380.09,508.42,1374.68,536.83,1374.68,536.83Zm144.74,58.91.2,393.55v48.06l.09,175.09s2.18,19.11,5.43,19.11c0,0-25.47,2.2-33.61-21.83l-.09-172.36,0-24.28v-7.65l-.76-421.14c1.08-5.46-2.18-13.66-2.18-13.66C1512.36,573.9,1519.42,595.74,1519.42,595.74Z" transform="translate(-1.24 2.03)"/><path class="cls-2" d="M1850.14,2059.06c35.82,92.3,136.61,73.13,136.61,73.13v-7.1c-25.47-1.63-28.2-42.05-28.2-42.05l-.32-608.91c-20-113.05-147.6-92.1-147.6-92.1-23.63-88.47-136.48-74.48-136.48-74.48v10.92c31.44,9.82,26,38.22,26,38.22l.3,579C1708.15,2082.63,1850.14,2059.06,1850.14,2059.06ZM1821,2037.58a33.67,33.67,0,0,1-3.91-8l-.09-172.36V1825.3l-.77-421.15c1.08-5.46-2.17-13.65-2.17-13.65,23.69,3.24,30.81,24.81,30.9,25.08a36.29,36.29,0,0,1,3.58,7.24l.21,393.54h-3.58v16.57l0,24.28v7.21h3.58l.09,175.09s2.17,19.11,5.43,19.11C1854.26,2058.62,1829.41,2060.72,1821,2037.58Z" transform="translate(-1.24 2.03)"/><path class="cls-2" d="M2221.36,1567.94v-7.1c-25.48-1.63-28.21-42-28.21-42l-.32-608.91c-20-113-147.6-92.09-147.6-92.09-23.62-88.48-136.48-74.49-136.48-74.49v10.92c31.44,9.82,26,38.22,26,38.22l.31,579c7.66,146.94,149.65,123.37,149.65,123.37C2120.57,1587.11,2221.36,1567.94,2221.36,1567.94Zm-169.69-102.6-.09-172.36v-31.93l-.76-421.15c1.08-5.46-2.17-13.65-2.17-13.65,23.85,3.27,30.9,25.11,30.9,25.11l.21,393.54V1293l.09,175.09s2.18,19.12,5.43,19.12C2085.28,1487.17,2059.81,1489.36,2051.67,1465.34Z" transform="translate(-1.24 2.03)"/><path class="cls-2" d="M1471,2516.15c7.67,146.93,149.65,123.37,149.65,123.37,35.82,92.29,136.62,73.12,136.62,73.12v-7.1c-25.47-1.63-28.2-42.05-28.2-42.05l-.32-608.9c-20-113.06-147.6-92.1-147.6-92.1C1557.56,1874,1444.7,1888,1444.7,1888v10.92c31.44,9.82,26,38.22,26,38.22Zm144.44-520.09.2,393.55v48l.09,175.09s2.18,19.12,5.43,19.12c0,0-25.47,2.2-33.61-21.83l-.09-172.36,0-24.29v-7.64l-.76-421.14c1.08-5.47-2.18-13.66-2.18-13.66C1608.42,1974.22,1615.48,1996.06,1615.48,1996.06Z" transform="translate(-1.24 2.03)"/><path class="cls-2" d="M2257.69,2193.79c7.66,146.93,149.65,123.37,149.65,123.37,35.82,92.29,136.61,73.12,136.61,73.12v-7.1c-25.47-1.62-28.2-42-28.2-42l-.32-608.91c-20-113.06-147.6-92.1-147.6-92.1-23.63-88.47-136.48-74.49-136.48-74.49v10.93c31.44,9.81,26,38.22,26,38.22Zm144.43-520.08.21,393.54V2091l0,24.28.09,175.09s2.18,19.12,5.43,19.11c0,0-25.47,2.2-33.62-21.83l-.09-172.36v-31.93l-.77-421.14c1.08-5.46-2.17-13.65-2.17-13.65C2395.07,1651.86,2402.12,1673.71,2402.12,1673.71Z" transform="translate(-1.24 2.03)"/><path class="cls-2" d="M2817.8,2449.41c7.67,146.93,149.65,123.37,149.65,123.37,35.82,92.29,136.62,73.12,136.62,73.12v-7.1c-25.48-1.63-28.21-42-28.21-42l-.32-608.91c-20-113.06-147.6-92.1-147.6-92.1-23.62-88.48-136.48-74.49-136.48-74.49v10.92c31.44,9.82,26,38.23,26,38.23Zm144.44-520.09.2,393.55v48.05l.09,175.09s2.18,19.12,5.43,19.12c0,0-25.47,2.2-33.61-21.83l-.09-172.36,0-24.28V2339l-.76-421.14c1.08-5.47-2.18-13.66-2.18-13.66C2955.18,1907.48,2962.24,1929.32,2962.24,1929.32Z" transform="translate(-1.24 2.03)"/><path class="cls-2" d="M3194.72,1984.24c35.82,92.29,136.62,73.13,136.62,73.13v-7.11c-25.48-1.62-28.21-42-28.21-42l-.32-608.91c-20-113.06-147.6-92.1-147.6-92.1-23.62-88.47-136.48-74.49-136.48-74.49v10.93c31.44,9.81,26,38.22,26,38.22l.3,579C3052.74,2007.8,3194.72,1984.24,3194.72,1984.24Zm-33.07-29.48-.09-172.36,0-24.28v-7.65l-.76-421.14c1.08-5.46-2.18-13.65-2.18-13.65,23.85,3.26,30.91,25.11,30.91,25.11l.21,393.54v48.06l.09,175.09s2.18,19.12,5.43,19.11C3195.26,1976.59,3169.79,1978.79,3161.65,1954.76Z" transform="translate(-1.24 2.03)"/><path class="cls-2" d="M3370.58,2680.74c7.67,146.93,149.65,123.37,149.65,123.37,35.82,92.29,136.62,73.12,136.62,73.12v-7.1c-25.47-1.63-28.2-42.05-28.2-42.05l-.32-608.9c-20-113.06-147.6-92.1-147.6-92.1-23.62-88.48-136.48-74.49-136.48-74.49v10.92c31.44,9.82,26,38.22,26,38.22ZM3515,2160.63a36.53,36.53,0,0,1,3.59,7.23l.2,393.54h-3.57V2578l0,24.28v7.21h3.58l.09,175.09s2.18,19.12,5.43,19.12c0,0-24.85,2.1-33.29-21a33.86,33.86,0,0,1-3.91-8l-.09-172.36v-31.93l-.77-421.14c1.09-5.47-2.17-13.66-2.17-13.66C3507.8,2138.79,3514.92,2160.35,3515,2160.63Z" transform="translate(-1.24 2.03)"/><path class="cls-2" d="M3754.84,2239.86c35.82,92.29,136.61,73.12,136.61,73.12v-7.1c-25.47-1.63-28.21-42-28.21-42l-.31-608.91c-20-113.06-147.6-92.1-147.6-92.1-23.63-88.48-136.48-74.49-136.48-74.49v10.92c31.44,9.82,26,38.23,26,38.23l.3,579C3612.85,2263.42,3754.84,2239.86,3754.84,2239.86Zm-33.08-29.48-.09-172.36v-31.93l-.77-421.14c1.08-5.46-2.17-13.66-2.17-13.66,23.85,3.27,30.9,25.11,30.9,25.11l.21,393.55v48l.1,175.09s2.17,19.12,5.43,19.12C3755.38,2232.21,3729.9,2234.41,3721.76,2210.38Z" transform="translate(-1.24 2.03)"/><path class="cls-2" d="M2176.39,226.65l.3,579C2184.36,952.58,2326.34,929,2326.34,929c35.82,92.3,136.62,73.13,136.62,73.13V995c-25.48-1.62-28.21-42-28.21-42l-.32-608.91c-20-113.06-147.6-92.1-147.6-92.1-23.62-88.47-136.48-74.49-136.48-74.49v10.93C2181.8,198.24,2176.39,226.65,2176.39,226.65Zm144.74,58.92.2,393.54v48.06l.09,175.09s2.18,19.12,5.43,19.12c0,0-25.47,2.19-33.61-21.84l-.09-172.36,0-24.28v-7.65l-.76-421.14c1.08-5.46-2.18-13.65-2.18-13.65C2314.07,263.72,2321.13,285.57,2321.13,285.57Z" transform="translate(-1.24 2.03)"/><path class="cls-2" d="M2722.18,462.24l.3,579c7.67,146.93,149.65,123.37,149.65,123.37,35.82,92.29,136.62,73.12,136.62,73.12v-7.1c-25.47-1.62-28.2-42-28.2-42l-.32-608.91c-20-113.06-147.6-92.1-147.6-92.1-23.62-88.48-136.48-74.49-136.48-74.49V424C2727.59,433.83,2722.18,462.24,2722.18,462.24Zm144.74,58.91.2,393.55v48.06l.09,175.09s2.18,19.11,5.43,19.11c0,0-25.47,2.2-33.61-21.83L2839,962.77l0-24.28v-7.65l-.76-421.14c1.08-5.46-2.18-13.66-2.18-13.66C2859.86,499.31,2866.92,521.15,2866.92,521.15Z" transform="translate(-1.24 2.03)"/><path class="cls-2" d="M1207.08,424.87C1242.9,517.17,1343.7,498,1343.7,498v-7.11c-25.48-1.62-28.21-42-28.21-42L1315.26-.61,1202-.55l.09,175.51V223l.09,175.09s2.18,19.12,5.43,19.11c0,0-25.47,2.2-33.61-21.83L1173.92,223l0-24.28V191.1L1173.55-.54l-116.27.06.15,302C1065.1,448.43,1207.08,424.87,1207.08,424.87Z" transform="translate(-1.24 2.03)"/><path class="cls-2" d="M652,186.36c35.82,92.3,136.61,73.13,136.61,73.13v-7.1c-25.47-1.63-28.2-42-28.2-42L760.26-.32,647-.26l.09,159.86s2.18,19.12,5.43,19.12c0,0-25.47,2.19-33.62-21.84L618.8-.25,502.28-.19l0,63.18C510,209.93,652,186.36,652,186.36Z" transform="translate(-1.24 2.03)"/><path class="cls-2" d="M489.78,2123.65c35.82,92.29,136.62,73.12,136.62,73.12v-7.1c-25.48-1.63-28.21-42.05-28.21-42.05l-.32-608.9c-20-113.06-147.6-92.1-147.6-92.1-23.62-88.48-136.48-74.49-136.48-74.49v10.92c31.44,9.82,26,38.23,26,38.23l.31,579C347.8,2147.21,489.78,2123.65,489.78,2123.65Zm-33.07-29.48-.09-172.36v-31.93l-.76-421.14c1.08-5.47-2.18-13.66-2.18-13.66,23.85,3.27,30.91,25.11,30.91,25.11l.21,393.55v48l.09,175.09s2.18,19.12,5.43,19.12C490.32,2116,464.85,2118.2,456.71,2094.17Z" transform="translate(-1.24 2.03)"/><path class="cls-2" d="M261.79,50l.3,579C269.76,776,411.74,752.4,411.74,752.4c35.82,92.3,136.62,73.13,136.62,73.13v-7.1c-25.47-1.63-28.2-42-28.2-42l-.32-608.91c-20-113.06-147.6-92.1-147.6-92.1C348.61-13.1,235.75.88,235.75.88V11.81C267.19,21.63,261.79,50,261.79,50ZM406.53,109l.2,393.54v48.06l.09,175.09s2.18,19.12,5.43,19.12c0,0-25.47,2.19-33.61-21.84l-.09-172.36,0-24.28v-7.65L377.8,97.49c1.08-5.46-2.18-13.65-2.18-13.65C399.47,87.1,406.53,109,406.53,109Z" transform="translate(-1.24 2.03)"/><path class="cls-2" d="M3349.79,26.26c35.82,92.3,136.61,73.13,136.61,73.13v-7.1c-25.48-1.63-28.21-42.05-28.21-42.05l0-52-113.28.06V-.5s2.18,19.12,5.43,19.12c0,0-24.25,2-33-20.27l-77.1,0C3284.67,37.05,3349.79,26.26,3349.79,26.26Z" transform="translate(-1.24 2.03)"/><path class="cls-2" d="M2004.67,110.47c35.81,92.3,136.61,73.13,136.61,73.13v-7.1c-25.48-1.63-28.21-42.05-28.21-42.05L2113-1,1999.73-1l0,84.68s2.18,19.12,5.43,19.12c0,0-25.47,2.19-33.61-21.84l0-81.94L1856-.89C1870.59,132.71,2004.67,110.47,2004.67,110.47Z" transform="translate(-1.24 2.03)"/><path class="cls-2" d="M2547.59,337.53c35.81,92.3,136.61,73.13,136.61,73.13v-7.1c-25.48-1.63-28.21-42.05-28.21-42.05L2655.8-1.31l-113.27.06,0,88.87v48.06l.09,175.09s2.18,19.12,5.43,19.12c0,0-25.47,2.2-33.61-21.83l-.09-172.36V103.77l-.19-105-116.39.07.12,215.33C2405.6,361.1,2547.59,337.53,2547.59,337.53Z" transform="translate(-1.24 2.03)"/><path class="cls-2" d="M3126.1,624.67c35.82,92.29,136.61,73.12,136.61,73.12v-7.1c-25.47-1.62-28.21-42-28.21-42l-.31-608.91c-2.92-16.5-8.17-30.07-14.94-41.34l-98.36.05.2,376.31v48.06l.1,175.09s2.17,19.11,5.43,19.11c0,0-25.48,2.2-33.62-21.83l-.09-172.36V390.9L3092.2-1.54l-116,.06.26,502.78C2984.11,648.23,3126.1,624.67,3126.1,624.67Z" transform="translate(-1.24 2.03)"/><path class="cls-2" d="M3521.76,134.84l.3,579c7.67,146.93,149.65,123.37,149.65,123.37,35.82,92.3,136.62,73.13,136.62,73.13v-7.11c-25.47-1.62-28.2-42-28.2-42l-.32-608.91c-20-113.06-147.6-92.1-147.6-92.1-23.62-88.47-136.48-74.49-136.48-74.49V96.62C3527.16,106.43,3521.76,134.84,3521.76,134.84Zm144.74,58.92.2,393.54v48.06l.09,175.09s2.18,19.12,5.43,19.11c0,0-25.47,2.2-33.61-21.83l-.09-172.36,0-24.28v-7.65l-.76-421.14c1.08-5.46-2.18-13.65-2.18-13.65C3659.44,171.91,3666.5,193.76,3666.5,193.76Z" transform="translate(-1.24 2.03)"/><path class="cls-2" d="M108.14,2591.71c7.66,146.93,149.65,123.37,149.65,123.37,35.82,92.29,136.61,73.12,136.61,73.12v-7.1c-25.47-1.63-28.2-42-28.2-42l-.32-608.91c-20-113.06-147.6-92.1-147.6-92.1-23.63-88.48-136.48-74.49-136.48-74.49v10.92c31.44,9.82,26,38.23,26,38.23Zm144.43-520.09.21,393.55v23.77l0,24.28.09,175.09s2.18,19.12,5.43,19.12c0,0-25.47,2.2-33.62-21.83l-.09-172.36v-31.93l-.77-421.14c1.09-5.47-2.17-13.66-2.17-13.66C245.52,2049.78,252.57,2071.62,252.57,2071.62Z" transform="translate(-1.24 2.03)"/><path class="cls-2" d="M3933.15,293c35.82,92.3,136.61,73.13,136.61,73.13V359c-25.47-1.62-28.2-42-28.2-42l-.17-319L3928.12-2l0,45.05V66.86l0,24.28.09,175.09s2.18,19.12,5.43,19.11c0,0-25.47,2.2-33.62-21.83L3900,91.15V59.22L3899.86-2l-116.45.06.09,171.52C3791.16,316.55,3933.15,293,3933.15,293Z" transform="translate(-1.24 2.03)"/><path class="cls-2" d="M783,2746.45v-31.93l-.77-421.14c1.08-5.46-2.17-13.66-2.17-13.66,23.85,3.27,30.9,25.12,30.9,25.12l.21,393.54v23.77l0,24.29.07,139.94,113.27-.06-.27-523c-20-113.06-147.6-92.1-147.6-92.1-23.63-88.48-136.48-74.49-136.48-74.49v10.93c31.44,9.81,26,38.22,26,38.22l.3,579c1.31,25.21,6.6,45.38,14.43,61.53l102.13-.06Z" transform="translate(-1.24 2.03)"/><path class="cls-2" d="M1341.36,2550.75c1.08-5.47-2.17-13.66-2.17-13.66,23.85,3.27,30.9,25.11,30.9,25.11l.17,323.89,113.28-.06-.14-265.3c-20-113.06-147.6-92.1-147.6-92.1-23.63-88.48-136.48-74.49-136.48-74.49v.26h0v7.1h0v3.55c31.44,9.82,26,38.22,26,38.22l.2,382.88,116.41-.06Z" transform="translate(-1.24 2.03)"/><path class="cls-2" d="M2278.23,2291.83c-20-113.06-147.6-92.1-147.6-92.1-23.62-88.47-136.48-74.49-136.48-74.49v10.93c31.44,9.81,26,38.22,26,38.22l.3,579c7.67,146.93,149.65,123.37,149.65,123.37,1.21,3.1,2.5,6.06,3.84,8.91l104.56-.05Zm-141.16,555.45-.09-172.36,0-24.28V2643l-.76-421.14c1.08-5.46-2.18-13.65-2.18-13.65,23.85,3.26,30.91,25.11,30.91,25.11l.2,393.54v48.06l.09,175.09s2.18,19.12,5.43,19.11C2170.68,2869.11,2145.21,2871.31,2137.07,2847.28Z" transform="translate(-1.24 2.03)"/><path class="cls-2" d="M4107.71,1691.61l-.32-608.9c-20-113.06-147.6-92.1-147.6-92.1-23.62-88.48-136.48-74.49-136.48-74.49V927c31.44,9.82,26,38.22,26,38.22l.31,579c7.66,146.93,149.65,123.37,149.65,123.37,28.51,73.46,98.13,76.3,125.38,74.4v-12.29C4109.6,1719.28,4107.71,1691.61,4107.71,1691.61Zm-141.48-53.45-.09-172.36v-31.93l-.76-421.14c1.08-5.47-2.17-13.66-2.17-13.66,23.84,3.27,30.9,25.11,30.9,25.11l.21,393.55v48l.09,175.09s2.18,19.12,5.43,19.12C3999.84,1660,3974.37,1662.19,3966.23,1638.16Z" transform="translate(-1.24 2.03)"/><path class="cls-2" d="M4042.78,2381.35c-23.62-88.48-136.48-74.49-136.48-74.49v10.92c31.44,9.82,26,38.22,26,38.22l.27,528.76,116.53-.06,0-28.16v-31.93l-.77-421.14c1.09-5.47-2.17-13.66-2.17-13.66,23.85,3.27,30.91,25.11,30.91,25.11l.2,393.55v23.77l0,24.28v28.16l48,0-.26-494.43C4085.25,2374.42,4042.78,2381.35,4042.78,2381.35Z" transform="translate(-1.24 2.03)"/><path class="cls-2" d="M262.62,1332.1l-.32-608.91c-20-113.06-147.6-92.1-147.6-92.1C97.84,567.94,35.54,557,1.24,555.9l0,30a35.55,35.55,0,0,1,3,19.84l.3,579c7.67,146.93,149.65,123.37,149.65,123.37,35.82,92.3,136.62,73.13,136.62,73.13v-7.11C265.35,1372.52,262.62,1332.1,262.62,1332.1Zm-141.48-53.46-.09-172.36,0-24.28v-7.65l-.76-421.14c1.08-5.46-2.18-13.65-2.18-13.65,23.85,3.26,30.91,25.11,30.91,25.11l.2,393.54v48.06l.09,175.09s2.18,19.12,5.43,19.11C154.75,1300.47,129.28,1302.67,121.14,1278.64Z" transform="translate(-1.24 2.03)"/><path class="cls-2" d="M2840.93,2548.49c-20-113.06-147.6-92.1-147.6-92.1-23.62-88.47-136.48-74.49-136.48-74.49v10.93c31.44,9.81,26,38.22,26,38.22l.24,454.41,116.5-.06-.73-406.89c1.08-5.46-2.18-13.65-2.18-13.65,23.85,3.26,30.91,25.11,30.91,25.11v3.59a36.18,36.18,0,0,1,3.58,7.22l.2,384.6h13.93l95.77,0Z" transform="translate(-1.24 2.03)"/><path class="cls-2" d="M3256.25,2735.34c1.08-5.46-2.18-13.65-2.18-13.65,23.85,3.26,30.91,25.11,30.91,25.11v3.59a36.18,36.18,0,0,1,3.58,7.22l.07,127.48,109.69-.06,0-79.71c-20-113.05-147.6-92.1-147.6-92.1-23.62-88.47-136.48-74.48-136.48-74.48v10.92c31.44,9.82,26,38.22,26,38.22l.1,197.29,116.18-.06Z" transform="translate(-1.24 2.03)"/><path class="cls-2" d="M1904.77,2803.5c1.08-5.47-2.18-13.66-2.18-13.66,23.85,3.27,30.91,25.11,30.91,25.11v3.59a36.18,36.18,0,0,1,3.58,7.22l0,60,109.7-.05v-12.26c-20-113.06-147.6-92.1-147.6-92.1-23.62-88.48-136.48-74.49-136.48-74.49v10.92c31.44,9.82,26,38.22,26,38.22l.07,129.84,116.08-.06Z" transform="translate(-1.24 2.03)"/><path class="cls-2" d="M544.17,2875.41c1.09-5.46-2.17-13.66-2.17-13.66,22.11,3,29.77,22,30.78,24.75l85,0c-44-45.46-119.2-33.17-119.2-33.17-23.62-88.48-136.48-74.49-136.48-74.49v10.93c31.44,9.81,26,38.22,26,38.22l0,58.63,116-.06Z" transform="translate(-1.24 2.03)"/><path class="cls-2" d="M970.45,992.39c35.82,92.29,136.62,73.12,136.62,73.12v-7.1c-25.48-1.62-28.21-42-28.21-42l-.32-608.91c-20-113.06-147.6-92.1-147.6-92.1-23.62-88.48-136.48-74.49-136.48-74.49V251.8c31.44,9.81,26,38.22,26,38.22l.31,579C828.47,1016,970.45,992.39,970.45,992.39Zm-33.07-29.48-.09-172.36V758.62l-.76-421.14c1.08-5.46-2.18-13.65-2.18-13.65,23.85,3.26,30.91,25.11,30.91,25.11l.21,393.54v48.06l.09,175.09s2.18,19.11,5.43,19.11C971,984.74,945.52,986.94,937.38,962.91Z" transform="translate(-1.24 2.03)"/><path class="cls-2" d="M2646.9,1744.38c35.81,92.3,136.61,73.13,136.61,73.13v-7.11c-25.48-1.62-28.21-42-28.21-42l-.32-608.91c-20-113.06-147.6-92.1-147.6-92.1-23.62-88.47-136.48-74.49-136.48-74.49v10.93c31.44,9.81,26,38.22,26,38.22l.31,579C2504.91,1767.94,2646.9,1744.38,2646.9,1744.38Zm-33.08-29.48-.09-172.36v-31.93l-.76-421.14c1.08-5.46-2.18-13.65-2.18-13.65,23.85,3.26,30.91,25.11,30.91,25.11l.21,393.54v48.06l.09,175.09s2.18,19.12,5.43,19.11C2647.43,1736.73,2622,1738.93,2613.82,1714.9Z" transform="translate(-1.24 2.03)"/><path class="cls-2" d="M3450.81,1431.62c35.82,92.29,136.62,73.12,136.62,73.12v-7.1c-25.48-1.63-28.21-42.05-28.21-42.05l-.32-608.9c-20-113.06-147.6-92.1-147.6-92.1-23.62-88.48-136.48-74.49-136.48-74.49V691c31.44,9.82,26,38.22,26,38.22l.31,579C3308.83,1455.18,3450.81,1431.62,3450.81,1431.62Zm-33.07-29.48-.09-172.36v-31.93l-.76-421.14c1.08-5.47-2.18-13.66-2.18-13.66,23.85,3.27,30.91,25.11,30.91,25.11l.21,393.54v48.06l.09,175.09s2.18,19.12,5.43,19.12C3451.35,1424,3425.88,1426.17,3417.74,1402.14Z" transform="translate(-1.24 2.03)"/><path class="cls-2" d="M1752,19.36l.21,393.54v23.77l0,24.29.09,175.09s2.18,19.11,5.43,19.11c0,0-25.47,2.2-33.62-21.83L1724,461V429L1723.23,7.9a19.71,19.71,0,0,0-.36-7.38H1607.24l.28,538.92c7.67,146.93,149.65,123.37,149.65,123.37,35.82,92.29,136.62,73.12,136.62,73.12v-7.1c-25.47-1.62-28.2-42-28.2-42l-.32-608.91C1858,37,1836.7,13.68,1812.44.52h-75.09A40.93,40.93,0,0,1,1752,19.36Z" transform="translate(-1.24 2.03)"/></g></svg>