<svg id="Capa_1" data-name="Capa 1" xmlns="http://www.w3.org/2000/svg" viewBox="0 0 1000 546.16"><defs><style>.cls-1,.cls-2{fill:#fff;stroke:#fff;stroke-miterlimit:10;}.cls-2{stroke-width:7px;}</style></defs><title>logo corregido</title><path class="cls-1" d="M582.05,509V107.72C568.94,33.2,484.91,47,484.91,47,469.39-11.34,395.08-2.16,395.08-2.16V5c20.69,6.48,17.13,25.19,17.13,25.19V411.8c5,96.84,98.48,81.36,98.48,81.36,23.55,60.83,89.92,48.23,89.92,48.23v-4.68C583.84,535.63,582.05,509,582.05,509ZM487.14,52.55c15.7,2.16,20.34,16.56,20.34,16.56v270H488.92l-.35-277.54C489.28,58,487.14,52.55,487.14,52.55Zm1.78,421.17V344.13h18.56V475.52s1.42,12.6,3.57,12.6C511.05,488.12,494.27,489.56,488.92,473.72Z" transform="translate(0 3.19)"/><path class="cls-1" d="M273.61,453.16a12.8,12.8,0,0,1-8.92-3.82c-9.09-9.18-29.59-37.46-30-105.93H395q.06-1.8.06-3.6C395.08,274,342.2,220.66,277,220.66S158.86,274,158.86,339.81,211.74,459,277,459c55.51,0,102.07-38.64,114.71-90.71h-6.59S362.84,454.35,273.61,453.16Zm-3.83-225.08a11.61,11.61,0,0,1,11.83-.33c39.91,22,35.5,107,35.5,107H234.69C235.09,259.32,258.39,235.32,269.78,228.08Z" transform="translate(0 3.19)"/><path class="cls-1" d="M720.86,219.94c-65.23,0-118.11,53.34-118.11,119.15,0,1.45,0,2.88.08,4.32h160c-.42,68.47-20.92,96.75-30,105.93a12.8,12.8,0,0,1-8.92,3.82c-89.24,1.19-111.48-84.91-111.48-84.91h-6.08c12.89,51.71,59.28,90,114.54,90,65.23,0,118.11-53.35,118.11-119.15S786.09,219.94,720.86,219.94Zm42.21,115.91H680.64c.41-75.45,23.71-99.45,35.09-106.69a11.63,11.63,0,0,1,11.84-.33C767.48,250.86,763.07,335.85,763.07,335.85Z" transform="translate(0 3.19)"/><line class="cls-2" y1="344.44" x2="1000" y2="344.44"/></svg>