<svg id="Capa_1" data-name="Capa 1" xmlns="http://www.w3.org/2000/svg" viewBox="0 0 832.16 454.65"><defs><style>.cls-1,.cls-2{fill:#fff;stroke:#fff;stroke-miterlimit:10;}.cls-2{stroke-width:7px;}</style></defs><title>Sin título-1.1</title><path class="cls-1" d="M472.41,426.14V92.5c-11-62.08-81.64-50.61-81.64-50.61C377.72-6.69,315.27,1,315.27,1V6.67c17.91,5.56,14.83,21.62,14.83,21.62V345.45c4.19,80.57,82.65,67.69,82.65,67.69,19.77,50.61,75.47,40.13,75.47,40.13v-3.71C473.93,448.64,472.41,426.14,472.41,426.14ZM392.81,46.63c13.39,1.8,17.34,13.78,17.34,13.78V285H394.34L394,54.12C394.64,51.12,392.81,46.63,392.81,46.63Zm1.53,350.19V289h15.81V398.32s1.21,10.48,3,10.48C413.19,408.8,398.9,410,394.34,396.82Z" transform="translate(0 -0.02)"/><path class="cls-1" d="M206.21,376.54c-7.64-7.65-25-31.27-25.31-88.53H316.06c0-1,.05-2,.05-3a99.48,99.48,0,1,0-2.86,23.76h-5.56s-18.76,72-94,71A10.81,10.81,0,0,1,206.21,376.54Zm14.23-184.49c33.5,18.32,29.8,89,29.8,89H181.06c.34-62.78,19.9-82.76,29.45-88.77A9.81,9.81,0,0,1,220.44,192.05Z" transform="translate(0 -0.02)"/><path class="cls-1" d="M687.76,270.48A99.58,99.58,0,0,0,489.58,284.4c0,1.21,0,2.41.07,3.61H624.5c-.35,57.26-17.66,80.88-25.31,88.53a10.81,10.81,0,0,1-7.48,3.18c-75.24,1-94-71-94-71h-5.13a99.59,99.59,0,0,0,195.17-38.28Zm-63.19,11.6H555.39c.34-62.79,19.9-82.76,29.45-88.77a9.83,9.83,0,0,1,9.93-.28C628.27,211.36,624.57,282.08,624.57,282.08Z" transform="translate(0 -0.02)"/><line class="cls-2" y1="286.51" x2="832.16" y2="286.51"/></svg>