<svg id="Capa_1" data-name="Capa 1" xmlns="http://www.w3.org/2000/svg" viewBox="0 0 1000 1000"><defs><style>.cls-1{fill:#e1cec4;}.cls-2{fill:#edcda8;opacity:0.5;}.cls-3{fill:#fff;}</style></defs><title>tc</title><rect class="cls-1" width="1000" height="1000"/><path class="cls-2" d="M662.54,402.26l.13-1.59A7.15,7.15,0,0,0,662.54,402.26Z"/><path class="cls-3" d="M722.84,415S719.5,402,694,394s-51.5-18-51.5-18S580,360.5,554,381.5c0,0,5-86.5-3-101.5,0,0-.5-52-25.5-73,0,0,18.5-48-57-44,0,0-22.5-19-42-7.5,0,0-9.5-1-11-3S374,126,363,121l-13-20s-3.5-7.5-10-6-7.75-.2-7.75-.2l-2,1.7-.75-1.7L328.25,96l-9.5.75S307,88.5,295.5,112c0,0-36.5,1-36.5,38s21.5,53,21.5,53,20,11.5,40.5,0c0,0-2.5,20,0,22,0,0-13,25.5-11.5,32,0,0-30,27.5-13,58.5s34,47,34,47-2,20,0,22c0,0-9,30.5-5.5,33.5s9-13.5,9-13.5,4-10.5,7.5-9c0,0,8,52,11,25,0,0,12.5,15.5,4-28,0,0,16,31.5,12.5,5,0,0,17,17.5,15,4.5,0,0,20,1.5-5-24.5,0,0,25-15.5-16-44.5,0,0-12-10-21.5-8.5l-4.5-20s33-12,40-50.5c0,0,31,17,40.5,10,0,0,33.5,24.5,44,22.5,0,0,27,28.5,3,59s-33,68.5-14,98c0,0-30,71.5-15.5,131.5,0,0,3,22-13.5,40s-44.5,43-35,123.5c0,0,3,55-9,60.5s-23,8-15.5,28.5c0,0,18.5,33.5,16.5,47s18,22,18,22,9,3,17.5,0c0,0,11,3,14,4s20-2-2-12c0,0-14-5.5-13.5-17,0,0-1.5-10,1.5-17.5s10-19.5,11.5-48.5,18.5-138.5,37-157c0,0,14-1.5,15-5s7-6,7-6l6.5-10s16.5-7.5,16.5-9.5S521,607.5,521,607.5,544,596,554.5,586s39-38.5,126-83c0,0,38.5-16,41.5-16h-3S779.18,458.5,722.84,415ZM534.33,540.33s-6.33-5.66-11-5.66,4-11.67,4-11.67,26.34-50.33,19-58c0,0,38.67,12.67,60.34,8.67C606.67,473.67,553,556,534.33,540.33Z"/></svg>